<?xml version="1.0" standalone="no"?>
<!DOCTYPE svg PUBLIC "-//W3C//DTD SVG 1.1//EN" "http://www.w3.org/Graphics/SVG/1.1/DTD/svg11.dtd" >
<svg xmlns="http://www.w3.org/2000/svg" xmlns:xlink="http://www.w3.org/1999/xlink" version="1.1">
<metadata></metadata>
<defs>
<font id="blockletter_tallregular" horiz-adv-x="1017" >
<font-face units-per-em="2048" ascent="1638" descent="-410" />
<missing-glyph horiz-adv-x="276" />
<glyph unicode="&#xd;" horiz-adv-x="508" />
<glyph horiz-adv-x="0" />
<glyph unicode=" "  horiz-adv-x="276" />
<glyph unicode="&#x09;" horiz-adv-x="276" />
<glyph unicode="&#xa0;" horiz-adv-x="276" />
<glyph unicode="!" horiz-adv-x="419" d="M0 0h267v268h-267v-268zM1 1600v-1245h268v1245h-268z" />
<glyph unicode="&#x22;" horiz-adv-x="804" d="M267 943v655h-267v-655h267zM654 943v655h-267v-655h267z" />
<glyph unicode="#" horiz-adv-x="1242" d="M0 782v-267h110l-50 -316h279l50 316h199l-50 -316h279l50 316h145v267h-103l36 233h147v267h-105l50 316h-279l-50 -316h-199l50 316h-279l-50 -316h-150v-267h108l-36 -233h-152zM666 1015l-36 -233h-199l36 233h199z" />
<glyph unicode="$" d="M299 -40h269v90h94l205 205v471l-73 71l1 1l-138 135h-389v327h332v-238h267v300l-205 206h-94v73h-269v-73h-94l-205 -206v-452l200 -204h400v-348h-332v159h-268v-222l205 -205h94v-90z" />
<glyph unicode="%" horiz-adv-x="1266" d="M629 1616l-322 -835h179l322 835h-179zM304 1456h-144v-163h144v163zM341 1616l123 -123v-237l-123 -123h-218l-123 123v237l123 123h218zM957 1104h-144v-163h144v163zM994 1264l122 -124v-236l-122 -123h-219l-122 123v236l122 124h219z" />
<glyph unicode="&#x26;" horiz-adv-x="1060" d="M600 598v-330h-332v398h243v267h-243v398h332v-309h267v371l-205 206h-457l-205 -206v-523l73 -73l-73 -71v-521l205 -205h457l205 205v331h43v267h-105z" />
<glyph unicode="'" horiz-adv-x="416" d="M266 943v655h-267v-655h267z" />
<glyph unicode="(" horiz-adv-x="508" d="M205 1598l-205 -206v-1187l205 -205h153v268h-90v1062h90v268h-153z" />
<glyph unicode=")" horiz-adv-x="508" d="M0 1597v-268h90v-1061h-90v-268h152l206 205v1186l-206 206h-152z" />
<glyph unicode="*" horiz-adv-x="546" d="M32 1513l77 -77h-109v-74h109l-77 -77l52 -52l77 77v-109h73v110l78 -78l51 51l-77 78h110v74h-108l76 77l-52 52l-78 -77v109h-73v-110l-78 77z" />
<glyph unicode="+" horiz-adv-x="816" d="M200 467h267v199h199v267h-199v200h-267v-200h-200v-267h200v-199z" />
<glyph unicode="," horiz-adv-x="418" d="M0 -1h125l-60 -140h141l61 140h1v268h-268v-268z" />
<glyph unicode="-" horiz-adv-x="706" d="M0 666h556v267h-556v-267z" />
<glyph unicode="." horiz-adv-x="418" d="M0 0h268v268h-268v-268z" />
<glyph unicode="/" horiz-adv-x="649" d="M0 0h279l220 1598h-279z" />
<glyph unicode="0" d="M600 268h-332v1062h332v-1062zM205 1598l-205 -206v-1187l205 -205h457l205 205v1187l-205 206h-457z" />
<glyph unicode="1" horiz-adv-x="418" d="M0 0h268v1598h-268v-1598z" />
<glyph unicode="2" d="M205 1599l-205 -206v-371h268v309h332v-398h-395l-205 -205v-728h867v477h-267v-209h-332v398h391l208 211v516l-205 206h-457z" />
<glyph unicode="3" d="M205 1599l-205 -206v-371h268v309h332v-398h-244v-267h244v-398h-332v209h-268v-272l205 -205h457l205 205v521l-73 71l73 73v523l-205 206h-457z" />
<glyph unicode="4" horiz-adv-x="963" d="M545 933h-277v665h-268v-932h545v-666h268v1598h-268v-665z" />
<glyph unicode="5" d="M0 666h599v-398h-331v209h-268v-272l205 -205h457l205 205v527h-1l-204 204h-394v395h599v268h-867v-933z" />
<glyph unicode="6" d="M599 666v-398h-332v398h332zM205 1599l-205 -205v-1188l205 -206h457l205 206v525l-205 205h-395v395h332v-209h268v272l-205 205h-457z" />
<glyph unicode="7" horiz-adv-x="915" d="M0 1598v-268h429l-252 -1330h278l310 1598h-765z" />
<glyph unicode="8" d="M600 268h-332v398h332v-398zM600 1331v-398h-332v398h332zM205 1599l-205 -206v-525l68 -69l-68 -68v-526l205 -205h457l205 205v526l-68 68l68 69v525l-205 206h-457z" />
<glyph unicode="9" d="M268 933v398h332v-398h-332zM662 0l205 205v1188l-205 206h-457l-205 -206v-525l205 -205h395v-395h-332v209h-268v-272l205 -205h457z" />
<glyph unicode=":" horiz-adv-x="418" d="M0 0h268v268h-268v-268zM0 1131h268v268h-268v-268z" />
<glyph unicode=";" horiz-adv-x="418" d="M0 1131h268v268h-268v-268zM0 268h268v-268h-1l-61 -140h-141l60 140h-125v268z" />
<glyph unicode="&#x3c;" horiz-adv-x="924" d="M774 608l-566 198l566 187v268l-774 -256v-393l774 -272v268z" />
<glyph unicode="=" horiz-adv-x="826" d="M0 496h676v267h-676v-267zM0 836h676v267h-676v-267z" />
<glyph unicode="&#x3e;" horiz-adv-x="924" d="M0 340l774 272v393l-774 256v-268l566 -187l-566 -198v-268z" />
<glyph unicode="?" d="M243 0h267v268h-267v-268zM205 1599l-205 -206v-271h268v209h331v-398h-149l-206 -205v-373h268v311h147l208 211v516l-205 206h-457z" />
<glyph unicode="@" horiz-adv-x="1025" d="M875 1261l-137 137h-601l-137 -137v-1260h179v1219h517v-286h-263l-137 -137v-660l137 -137h305l137 137v1124zM696 179h-221v577h221v-577z" />
<glyph unicode="A" horiz-adv-x="1150" d="M604 606h-200l103 482zM332 338h340l71 -338h257l-355 1599h-268l-377 -1599h258z" />
<glyph unicode="B" d="M268 1331h331v-398h-331v398zM600 268h-332v398h332v-398zM0 1599v-1599h662l205 205v521l-73 71l73 73v523l-205 206h-662z" />
<glyph unicode="C" d="M205 1598l-205 -206v-1187l205 -205h457l205 205v272h-267v-209h-332v1062h332v-209h267v271l-205 206h-457z" />
<glyph unicode="D" d="M600 268h-332v1062h332v-1062zM0 1598v-1598h662l205 205v1187l-205 206h-662z" />
<glyph unicode="E" horiz-adv-x="861" d="M0 1599v-1599h711v268h-443v398h354v267h-354v398h443v268h-711z" />
<glyph unicode="F" horiz-adv-x="861" d="M0 1599v-1599h268v666h354v267h-354v398h443v268h-711z" />
<glyph unicode="G" d="M205 1599l-205 -206v-1188l205 -205h457l205 205v728h-421v-267h154v-398h-332v1063h332v-209h267v271l-205 206h-457z" />
<glyph unicode="H" horiz-adv-x="984" d="M566 933h-298v665h-268v-1598h268v666h298v-666h268v1598h-268v-665z" />
<glyph unicode="I" horiz-adv-x="418" d="M0 0h268v1598h-268v-1598z" />
<glyph unicode="J" d="M600 268h-332v209h-268v-272l205 -205h457l205 205v1393h-267v-1330z" />
<glyph unicode="K" horiz-adv-x="1050" d="M601 1599l-333 -652v652h-268v-1599h268v651l333 -651h299l-401 799l401 800h-299z" />
<glyph unicode="L" horiz-adv-x="860" d="M268 1599h-268v-1599h710v268h-442v1331z" />
<glyph unicode="M" horiz-adv-x="1180" d="M515 865l-225 734h-290v-1599h268v717l132 -717h230l132 717v-717h268v1599h-290z" />
<glyph unicode="N" horiz-adv-x="1073" d="M655 752l-354 847h-301v-1599h268v847l354 -847h301v1599h-268v-847z" />
<glyph unicode="O" d="M600 268h-332v1062h332v-1062zM205 1598l-205 -206v-1187l205 -205h457l205 205v1187l-205 206h-457z" />
<glyph unicode="P" d="M599 899h-331v432h331v-432zM0 1599v-1599h268v632h394l205 205v556l-205 206h-662z" />
<glyph unicode="Q" d="M493 387l-121 -117h-104v1063h332v-1056zM205 1600l-205 -205v-1187l205 -206h287l182 -187l193 185l-102 106l102 102v1187l-205 205h-457z" />
<glyph unicode="R" d="M600 899h-332v431h332v-431zM0 1598v-1598h268v632h332v-632h267v726l-73 71l73 73v522l-205 206h-662z" />
<glyph unicode="S" d="M205 1599l-205 -206v-523l200 -204h400v-398h-332v209h-268v-272l205 -205h457l205 205v521l-73 71l1 1l-138 135h-389v398h332v-309h267v371l-205 206h-457z" />
<glyph unicode="T" horiz-adv-x="935" d="M0 1598v-268h258v-1330h268v1330h259v268h-785z" />
<glyph unicode="U" d="M599 268h-331v1330h-268v-1393l205 -205h457l205 205v1393h-268v-1330z" />
<glyph unicode="V" horiz-adv-x="1150" d="M493 561l-225 1036h-268l355 -1597h268l377 1597h-267z" />
<glyph unicode="W" horiz-adv-x="1577" d="M1023 794l-185 805h-249l-185 -805l-128 805h-276l229 -1599h315l170 797l168 -797h316l229 1599h-276z" />
<glyph unicode="X" horiz-adv-x="1043" d="M893 1599h-293l-153 -407l-153 407h-294l300 -800l-300 -799h293l154 407l153 -407h293l-300 799z" />
<glyph unicode="Y" horiz-adv-x="1140" d="M488 1025l-223 574h-265l351 -950v-649h267v649l372 950h-265z" />
<glyph unicode="Z" horiz-adv-x="952" d="M0 1330h467l-467 -1048v-282h802v268h-457l457 1047v283h-802v-268z" />
<glyph unicode="[" horiz-adv-x="520" d="M0 1598v-1598h370v268h-102v1062h102v268h-370z" />
<glyph unicode="\" horiz-adv-x="649" d="M279 1399h-279l220 -1399h279z" />
<glyph unicode="]" horiz-adv-x="520" d="M0 1598v-268h102v-1062h-102v-268h370v1598h-370z" />
<glyph unicode="^" horiz-adv-x="924" d="M194 823l198 566l187 -566h268l-256 774h-393l-272 -774h268z" />
<glyph unicode="_" horiz-adv-x="706" d="M0 -494h556v267h-556v-267z" />
<glyph unicode="`" horiz-adv-x="617" d="M192 1614l-191 389h267l191 -389h-267z" />
<glyph unicode="a" horiz-adv-x="1150" d="M604 606h-200l103 482zM332 338h340l71 -338h257l-355 1599h-268l-377 -1599h258z" />
<glyph unicode="b" d="M268 1331h331v-398h-331v398zM600 268h-332v398h332v-398zM0 1599v-1599h662l205 205v521l-73 71l73 73v523l-205 206h-662z" />
<glyph unicode="c" d="M205 1598l-205 -206v-1187l205 -205h457l205 205v272h-267v-209h-332v1062h332v-209h267v271l-205 206h-457z" />
<glyph unicode="d" d="M600 268h-332v1062h332v-1062zM0 1598v-1598h662l205 205v1187l-205 206h-662z" />
<glyph unicode="e" horiz-adv-x="861" d="M0 1599v-1599h711v268h-443v398h354v267h-354v398h443v268h-711z" />
<glyph unicode="f" horiz-adv-x="861" d="M0 1599v-1599h268v666h354v267h-354v398h443v268h-711z" />
<glyph unicode="g" d="M205 1599l-205 -206v-1188l205 -205h457l205 205v728h-421v-267h154v-398h-332v1063h332v-209h267v271l-205 206h-457z" />
<glyph unicode="h" horiz-adv-x="984" d="M566 933h-298v665h-268v-1598h268v666h298v-666h268v1598h-268v-665z" />
<glyph unicode="i" horiz-adv-x="418" d="M0 0h268v1598h-268v-1598z" />
<glyph unicode="j" d="M600 268h-332v209h-268v-272l205 -205h457l205 205v1393h-267v-1330z" />
<glyph unicode="k" horiz-adv-x="1050" d="M601 1599l-333 -652v652h-268v-1599h268v651l333 -651h299l-401 799l401 800h-299z" />
<glyph unicode="l" horiz-adv-x="860" d="M268 1599h-268v-1599h710v268h-442v1331z" />
<glyph unicode="m" horiz-adv-x="1180" d="M515 865l-225 734h-290v-1599h268v717l132 -717h230l132 717v-717h268v1599h-290z" />
<glyph unicode="n" horiz-adv-x="1073" d="M655 752l-354 847h-301v-1599h268v847l354 -847h301v1599h-268v-847z" />
<glyph unicode="o" d="M600 268h-332v1062h332v-1062zM205 1598l-205 -206v-1187l205 -205h457l205 205v1187l-205 206h-457z" />
<glyph unicode="p" d="M599 899h-331v432h331v-432zM0 1599v-1599h268v632h394l205 205v556l-205 206h-662z" />
<glyph unicode="q" d="M493 387l-121 -117h-104v1063h332v-1056zM205 1600l-205 -205v-1187l205 -206h287l182 -187l193 185l-102 106l102 102v1187l-205 205h-457z" />
<glyph unicode="r" d="M600 899h-332v431h332v-431zM0 1598v-1598h268v632h332v-632h267v726l-73 71l73 73v522l-205 206h-662z" />
<glyph unicode="s" d="M205 1599l-205 -206v-523l200 -204h400v-398h-332v209h-268v-272l205 -205h457l205 205v521l-73 71l1 1l-138 135h-389v398h332v-309h267v371l-205 206h-457z" />
<glyph unicode="t" horiz-adv-x="935" d="M0 1598v-268h258v-1330h268v1330h259v268h-785z" />
<glyph unicode="u" d="M599 268h-331v1330h-268v-1393l205 -205h457l205 205v1393h-268v-1330z" />
<glyph unicode="v" horiz-adv-x="1150" d="M493 561l-225 1036h-268l355 -1597h268l377 1597h-267z" />
<glyph unicode="w" horiz-adv-x="1577" d="M1023 794l-185 805h-249l-185 -805l-128 805h-276l229 -1599h315l170 797l168 -797h316l229 1599h-276z" />
<glyph unicode="x" horiz-adv-x="1043" d="M893 1599h-293l-153 -407l-153 407h-294l300 -800l-300 -799h293l154 407l153 -407h293l-300 799z" />
<glyph unicode="y" horiz-adv-x="1140" d="M488 1025l-223 574h-265l351 -950v-649h267v649l372 950h-265z" />
<glyph unicode="z" horiz-adv-x="952" d="M0 1330h467l-467 -1048v-282h802v268h-457l457 1047v283h-802v-268z" />
<glyph unicode="{" horiz-adv-x="508" d="M268 855v474h90v268h-152l-206 -206v-543l49 -49l-49 -49v-545l206 -205h152v268h-90v475l56 56z" />
<glyph unicode="|" horiz-adv-x="418" d="M0 -200h268v1799h-268v-1799z" />
<glyph unicode="}" horiz-adv-x="508" d="M34 799l56 -56v-475h-90v-268h152l206 205v545l-49 49l49 49v543l-206 206h-152v-268h90v-474z" />
<glyph unicode="~" horiz-adv-x="910" d="M563 813q5 -77 -206 30q-39 14 -71 21q-81 19 -144 -2q-67 -23 -105 -84q-33 -54 -37 -127l190 -39q-3 25 14.5 43.5t191.5 -50t256.5 -15t107.5 184.5z" />
<glyph unicode="&#xa1;" horiz-adv-x="419" d="M0 1332h267v268h-267v-268zM269 0v1245h-268v-1245h268z" />
<glyph unicode="&#xa2;" d="M205 1302l-205 -206v-544l205 -205h94v-97h269v97h94l205 205v162h-267v-99h-332v419h332v-99h267v161l-205 206h-94v96h-269v-96h-94z" />
<glyph unicode="&#xa3;" horiz-adv-x="1076" d="M264 1399l-205 -206v-1193h867v268h-599v863h332v-209h267v271l-205 206h-457zM0 597h556v147h-556v-147z" />
<glyph unicode="&#xa4;" horiz-adv-x="150" />
<glyph unicode="&#xa5;" horiz-adv-x="150" />
<glyph unicode="&#xa6;" horiz-adv-x="150" />
<glyph unicode="&#xa7;" horiz-adv-x="150" />
<glyph unicode="&#xa8;" horiz-adv-x="841" d="M0 1616h268v268h-268v-268zM423 1616h268v268h-268v-268z" />
<glyph unicode="&#xa9;" horiz-adv-x="150" />
<glyph unicode="&#xaa;" horiz-adv-x="150" />
<glyph unicode="&#xab;" horiz-adv-x="150" />
<glyph unicode="&#xac;" horiz-adv-x="150" />
<glyph unicode="&#xad;" horiz-adv-x="706" d="M0 666h556v267h-556v-267z" />
<glyph unicode="&#xae;" horiz-adv-x="150" />
<glyph unicode="&#xaf;" horiz-adv-x="150" />
<glyph unicode="&#xb0;" horiz-adv-x="150" />
<glyph unicode="&#xb1;" horiz-adv-x="150" />
<glyph unicode="&#xb2;" horiz-adv-x="150" />
<glyph unicode="&#xb3;" horiz-adv-x="150" />
<glyph unicode="&#xb4;" horiz-adv-x="617" d="M1 1614l191 389h267l-191 -389h-267z" />
<glyph unicode="&#xb5;" horiz-adv-x="150" />
<glyph unicode="&#xb6;" horiz-adv-x="150" />
<glyph unicode="&#xb7;" horiz-adv-x="150" />
<glyph unicode="&#xb8;" horiz-adv-x="679" d="M442 80l-227 82l-163 -444l-47 -131q276 6 290.5 -54.5t-87.5 -55.5q-42 5 -70 24l-138 -198q82 -57 187 -67t189 31q139 68 148 225q5 94 -62 166q-51 55 -141 95z" />
<glyph unicode="&#xb9;" horiz-adv-x="150" />
<glyph unicode="&#xba;" horiz-adv-x="150" />
<glyph unicode="&#xbb;" horiz-adv-x="150" />
<glyph unicode="&#xbc;" horiz-adv-x="150" />
<glyph unicode="&#xbd;" horiz-adv-x="150" />
<glyph unicode="&#xbe;" horiz-adv-x="150" />
<glyph unicode="&#xbf;" d="M624 1599h-267v-268h267v268zM662 0l205 206v271h-268v-209h-331v398h149l206 205v373h-268v-311h-147l-208 -211v-516l205 -206h457z" />
<glyph unicode="&#xc0;" horiz-adv-x="1150" d="M604 606h-200l103 482zM332 338h340l71 -338h257l-355 1599h-268l-377 -1599h258zM367 1691l-191 389h267l191 -389h-267z" />
<glyph unicode="&#xc1;" horiz-adv-x="1150" d="M604 606h-200l103 482zM332 338h340l71 -338h257l-355 1599h-268l-377 -1599h258zM377 1691l191 389h267l-191 -389h-267z" />
<glyph unicode="&#xc2;" horiz-adv-x="1150" d="M604 606h-200l103 482zM332 338h340l71 -338h257l-355 1599h-268l-377 -1599h258zM500 1857l-200 -151l-135 178l267 203l68 51l68 -51l267 -203l-135 -178z" />
<glyph unicode="&#xc3;" horiz-adv-x="1150" d="M604 606h-200l103 482zM332 338h340l71 -338h257l-355 1599h-268l-377 -1599h258zM683 1935q5 -77 -206 30q-39 14 -71 21q-81 19 -144 -2q-67 -23 -105 -84q-33 -54 -37 -127l190 -39q-3 25 14.5 43.5t191.5 -50t256.5 -15t107.5 184.5z" />
<glyph unicode="&#xc4;" horiz-adv-x="1150" d="M604 606h-200l103 482zM332 338h340l71 -338h257l-355 1599h-268l-377 -1599h258zM398 1690h268v268h-268v-268zM821 1690h268v268h-268v-268z" />
<glyph unicode="&#xc5;" horiz-adv-x="1150" d="M604 606h-200l103 482zM549 1766q0 -20 -14.5 -34.5t-34.5 -14.5t-34.5 14.5t-14.5 34.5q0 21 14.5 35.5t34.5 14.5t34.5 -14.5t14.5 -35.5zM640 1627q57 58 57 139q0 82 -57.5 140t-139.5 58t-139.5 -58t-57.5 -140q0 -81 58 -139q16 -16 34 -28h-18l-377 -1599h258 l74 338h340l71 -338h257l-355 1599h-40q18 12 35 28z" />
<glyph unicode="&#xc6;" horiz-adv-x="1598" d="M1448 0v268h-441v398h352v267h-352v397h441v267l-708 1l-740 -1598h298l117 278h325v-278h708zM740 546h-193l193 442v-442z" />
<glyph unicode="&#xc7;" d="M304 -103l-27 -74q157 3 165.5 -31.5t-49.5 -31.5q-24 3 -40 14l-78 -113q46 -32 106 -38t108 18q79 39 83 128q3 53 -35 94q-29 32 -80 54l36 83h169l205 205v272h-267v-209h-332v1062h332v-209h267v271l-205 206h-457l-205 -206v-1187l205 -205h142z" />
<glyph unicode="&#xc8;" horiz-adv-x="861" d="M0 1599v-1599h711v268h-443v398h354v267h-354v398h443v268h-711zM241 1689l-191 389h267l191 -389h-267z" />
<glyph unicode="&#xc9;" horiz-adv-x="861" d="M0 1599v-1599h711v268h-443v398h354v267h-354v398h443v268h-711zM203 1689l191 389h267l-191 -389h-267z" />
<glyph unicode="&#xca;" horiz-adv-x="861" d="M0 1599v-1599h711v268h-443v398h354v267h-354v398h443v268h-711zM355 1842l-200 -151l-135 178l267 203l68 51l68 -51l267 -203l-135 -178z" />
<glyph unicode="&#xcb;" horiz-adv-x="861" d="M0 1599v-1599h711v268h-443v398h354v267h-354v398h443v268h-711zM253 1690h268v268h-268v-268zM676 1690h268v268h-268v-268z" />
<glyph unicode="&#xcc;" horiz-adv-x="418" d="M0 0h268v1598h-268v-1598zM19 1691l-190 389h267l190 -389h-267z" />
<glyph unicode="&#xcd;" horiz-adv-x="417" d="M0 0h267v1598h-267v-1598zM-9 1691l191 389h267l-191 -389h-267z" />
<glyph unicode="&#xce;" horiz-adv-x="418" d="M0 0h268v1598h-268v-1598zM134 1839l-200 -151l-135 178l267 203l68 51l68 -51l267 -203l-135 -178z" />
<glyph unicode="&#xcf;" horiz-adv-x="417" d="M-1 0h267v1598h-267v-1598zM-212 1688h267v268h-267v-268zM211 1688h267v268h-267v-268z" />
<glyph unicode="&#xd0;" d="M268 933v398h332v-1063h-332v398h208v267h-208zM-80 933v-267h80v-666h662l205 205v1188l-205 206h-662v-666h-80z" />
<glyph unicode="&#xd1;" horiz-adv-x="1073" d="M655 752l-354 847h-301v-1599h268v847l354 -847h301v1599h-268v-847zM644 1936q5 -77 -206 30q-39 14 -71 21q-81 19 -144 -2q-67 -23 -105 -84q-33 -54 -37 -127l190 -39q-3 25 14.5 43.5t191.5 -50t256.5 -15t107.5 184.5z" />
<glyph unicode="&#xd2;" d="M600 268h-332v1062h332v-1062zM205 1598l-205 -206v-1187l205 -205h457l205 205v1187l-205 206h-457zM319 1691l-191 389h267l191 -389h-267z" />
<glyph unicode="&#xd3;" d="M600 268h-332v1062h332v-1062zM205 1598l-205 -206v-1187l205 -205h457l205 205v1187l-205 206h-457zM281 1692l191 389h267l-191 -389h-267z" />
<glyph unicode="&#xd4;" d="M600 268h-332v1062h332v-1062zM205 1598l-205 -206v-1187l205 -205h457l205 205v1187l-205 206h-457zM433 1841l-200 -151l-135 178l267 203l68 51l68 -51l267 -203l-135 -178z" />
<glyph unicode="&#xd5;" d="M600 268h-332v1062h332v-1062zM205 1598l-205 -206v-1187l205 -205h457l205 205v1187l-205 206h-457zM616 1936q5 -77 -206 30q-39 14 -71 21q-81 19 -144 -2q-67 -23 -105 -84q-33 -54 -37 -127l190 -39q-3 25 14.5 43.5t191.5 -50t256.5 -15t107.5 184.5z" />
<glyph unicode="&#xd6;" d="M600 268h-332v1062h332v-1062zM205 1598l-205 -206v-1187l205 -205h457l205 205v1187l-205 206h-457zM88 1691h268v268h-268v-268zM511 1691h268v268h-268v-268z" />
<glyph unicode="&#xd7;" horiz-adv-x="816" d="M474 470l189 189l-140 141l140 141l-189 189l-140 -141l-142 141l-189 -189l142 -141l-142 -141l189 -189l142 141z" />
<glyph unicode="&#xd8;" d="M600 1009v-741h-273zM268 497v833h305zM205 1598l-205 -206v-1187l205 -205h457l205 205v1187l-205 206h-457z" />
<glyph unicode="&#xd9;" d="M599 268h-331v1330h-268v-1393l205 -205h457l205 205v1393h-268v-1330zM319 1691l-191 389h267l191 -389h-267z" />
<glyph unicode="&#xda;" d="M599 268h-331v1330h-268v-1393l205 -205h457l205 205v1393h-268v-1330zM281 1691l191 389h267l-191 -389h-267z" />
<glyph unicode="&#xdb;" d="M599 268h-331v1330h-268v-1393l205 -205h457l205 205v1393h-268v-1330zM433 1839l-200 -151l-135 178l267 203l68 51l68 -51l267 -203l-135 -178z" />
<glyph unicode="&#xdc;" d="M599 268h-331v1330h-268v-1393l205 -205h457l205 205v1393h-268v-1330zM331 1688h268v268h-268v-268zM754 1688h268v268h-268v-268z" />
<glyph unicode="&#xdd;" horiz-adv-x="1140" d="M488 1025l-223 574h-265l351 -950v-649h267v649l372 950h-265zM343 1690l191 389h267l-191 -389h-267z" />
<glyph unicode="&#xde;" d="M267 1598h-267v-140h-1v-1326h1v-132h267v132h394l205 205v915l-205 206h-394v140zM598 399h-331v791h331v-791z" />
<glyph unicode="&#xdf;" horiz-adv-x="1061" d="M706 1599h-501l-205 -206v-1393h268v1331h376v-398h-243v-267h243v-398h-243v-268h305l205 205v521l-72 71l72 73v523z" />
<glyph unicode="&#xe0;" horiz-adv-x="1150" d="M604 606h-200l103 482zM332 338h340l71 -338h257l-355 1599h-268l-377 -1599h258zM386 1692l-191 389h267l191 -389h-267z" />
<glyph unicode="&#xe1;" horiz-adv-x="1150" d="M604 606h-200l103 482zM332 338h340l71 -338h257l-355 1599h-268l-377 -1599h258zM377 1693l191 389h267l-191 -389h-267z" />
<glyph unicode="&#xe2;" horiz-adv-x="1150" d="M604 606h-200l103 482zM332 338h340l71 -338h257l-355 1599h-268l-377 -1599h258zM500 1841l-200 -151l-135 178l267 203l68 51l68 -51l267 -203l-135 -178z" />
<glyph unicode="&#xe3;" horiz-adv-x="1150" d="M604 606h-200l103 482zM332 338h340l71 -338h257l-355 1599h-268l-377 -1599h258zM683 1937q5 -77 -206 30q-39 14 -71 21q-81 19 -144 -2q-67 -23 -105 -84q-33 -54 -37 -127l190 -39q-3 25 14.5 43.5t191.5 -50t256.5 -15t107.5 184.5z" />
<glyph unicode="&#xe4;" horiz-adv-x="1150" d="M604 606h-200l103 482zM332 338h340l71 -338h257l-355 1599h-268l-377 -1599h258zM407 1690h268v268h-268v-268zM830 1690h268v268h-268v-268z" />
<glyph unicode="&#xe5;" horiz-adv-x="1150" d="M604 606h-200l103 482zM549 1766q0 -20 -14.5 -34.5t-34.5 -14.5t-34.5 14.5t-14.5 34.5q0 21 14.5 35.5t34.5 14.5t34.5 -14.5t14.5 -35.5zM640 1627q57 58 57 139q0 82 -57.5 140t-139.5 58t-139.5 -58t-57.5 -140q0 -81 58 -139q16 -16 34 -28h-18l-377 -1599h258 l74 338h340l71 -338h257l-355 1599h-40q18 12 35 28z" />
<glyph unicode="&#xe6;" horiz-adv-x="1598" d="M1448 0v268h-441v398h352v267h-352v397h441v267l-708 1l-740 -1598h298l117 278h325v-278h708zM740 546h-193l193 442v-442z" />
<glyph unicode="&#xe7;" d="M304 -103l-27 -74q157 3 165.5 -31.5t-49.5 -31.5q-24 3 -40 14l-78 -113q46 -32 106 -38t108 18q79 39 83 128q3 53 -35 94q-29 32 -80 54l36 83h169l205 205v272h-267v-209h-332v1062h332v-209h267v271l-205 206h-457l-205 -206v-1187l205 -205h142z" />
<glyph unicode="&#xe8;" horiz-adv-x="861" d="M0 1599v-1599h711v268h-443v398h354v267h-354v398h443v268h-711zM241 1689l-191 389h267l191 -389h-267z" />
<glyph unicode="&#xe9;" horiz-adv-x="861" d="M0 1599v-1599h711v268h-443v398h354v267h-354v398h443v268h-711zM203 1689l191 389h267l-191 -389h-267z" />
<glyph unicode="&#xea;" horiz-adv-x="861" d="M0 1599v-1599h711v268h-443v398h354v267h-354v398h443v268h-711zM355 1842l-200 -151l-135 178l267 203l68 51l68 -51l267 -203l-135 -178z" />
<glyph unicode="&#xeb;" horiz-adv-x="861" d="M0 1599v-1599h711v268h-443v398h354v267h-354v398h443v268h-711zM10 1690h268v268h-268v-268zM433 1690h268v268h-268v-268z" />
<glyph unicode="&#xec;" horiz-adv-x="418" d="M0 0h268v1598h-268v-1598zM19 1691l-190 389h267l190 -389h-267z" />
<glyph unicode="&#xed;" horiz-adv-x="417" d="M0 0h267v1598h-267v-1598zM-9 1691l191 389h267l-191 -389h-267z" />
<glyph unicode="&#xee;" horiz-adv-x="418" d="M0 0h268v1598h-268v-1598zM134 1839l-200 -151l-135 178l267 203l68 51l68 -51l267 -203l-135 -178z" />
<glyph unicode="&#xef;" horiz-adv-x="417" d="M-1 0h267v1598h-267v-1598zM-212 1688h267v268h-267v-268zM211 1688h267v268h-267v-268z" />
<glyph unicode="&#xf0;" d="M268 933v398h332v-1063h-332v398h208v267h-208zM-80 933v-267h80v-666h662l205 205v1188l-205 206h-662v-666h-80z" />
<glyph unicode="&#xf1;" horiz-adv-x="1073" d="M655 752l-354 847h-301v-1599h268v847l354 -847h301v1599h-268v-847zM644 1936q5 -77 -206 30q-39 14 -71 21q-81 19 -144 -2q-67 -23 -105 -84q-33 -54 -37 -127l190 -39q-3 25 14.5 43.5t191.5 -50t256.5 -15t107.5 184.5z" />
<glyph unicode="&#xf2;" d="M600 268h-332v1062h332v-1062zM205 1598l-205 -206v-1187l205 -205h457l205 205v1187l-205 206h-457zM319 1691l-191 389h267l191 -389h-267z" />
<glyph unicode="&#xf3;" d="M600 268h-332v1062h332v-1062zM205 1598l-205 -206v-1187l205 -205h457l205 205v1187l-205 206h-457zM281 1692l191 389h267l-191 -389h-267z" />
<glyph unicode="&#xf4;" d="M600 268h-332v1062h332v-1062zM205 1598l-205 -206v-1187l205 -205h457l205 205v1187l-205 206h-457zM433 1841l-200 -151l-135 178l267 203l68 51l68 -51l267 -203l-135 -178z" />
<glyph unicode="&#xf5;" d="M600 268h-332v1062h332v-1062zM205 1598l-205 -206v-1187l205 -205h457l205 205v1187l-205 206h-457zM616 1936q5 -77 -206 30q-39 14 -71 21q-81 19 -144 -2q-67 -23 -105 -84q-33 -54 -37 -127l190 -39q-3 25 14.5 43.5t191.5 -50t256.5 -15t107.5 184.5z" />
<glyph unicode="&#xf6;" d="M600 268h-332v1062h332v-1062zM205 1598l-205 -206v-1187l205 -205h457l205 205v1187l-205 206h-457zM88 1691h268v268h-268v-268zM511 1691h268v268h-268v-268z" />
<glyph unicode="&#xf7;" horiz-adv-x="1032" d="M307 319h268v268h-268v-268zM307 1006h268v268h-268v-268zM882 666v267h-882v-267h882z" />
<glyph unicode="&#xf8;" d="M600 1009v-741h-273zM268 497v833h305zM205 1598l-205 -206v-1187l205 -205h457l205 205v1187l-205 206h-457z" />
<glyph unicode="&#xf9;" d="M599 268h-331v1330h-268v-1393l205 -205h457l205 205v1393h-268v-1330zM319 1691l-191 389h267l191 -389h-267z" />
<glyph unicode="&#xfa;" d="M599 268h-331v1330h-268v-1393l205 -205h457l205 205v1393h-268v-1330zM281 1691l191 389h267l-191 -389h-267z" />
<glyph unicode="&#xfb;" d="M599 268h-331v1330h-268v-1393l205 -205h457l205 205v1393h-268v-1330zM433 1839l-200 -151l-135 178l267 203l68 51l68 -51l267 -203l-135 -178z" />
<glyph unicode="&#xfc;" d="M599 268h-331v1330h-268v-1393l205 -205h457l205 205v1393h-268v-1330zM88 1688h268v268h-268v-268zM511 1688h268v268h-268v-268z" />
<glyph unicode="&#xfd;" horiz-adv-x="1140" d="M488 1025l-223 574h-265l351 -950v-649h267v649l372 950h-265zM343 1690l191 389h267l-191 -389h-267z" />
<glyph unicode="&#xfe;" d="M267 1598h-267v-140h-1v-1326h1v-132h267v132h394l205 205v915l-205 206h-394v140zM598 399h-331v791h331v-791z" />
<glyph unicode="&#xff;" horiz-adv-x="1140" d="M488 1025l-223 574h-265l351 -950v-649h267v649l372 950h-265zM149 1690h268v268h-268v-268zM572 1690h268v268h-268v-268z" />
<glyph unicode="&#x104;" horiz-adv-x="1150" d="M604 606h-200l103 482zM662 -135q-4 -74 51 -122q26 -26 75 -46q51 -23 140 -8v151q-46 -22 -73 13q-27 34 43 96q32 28 102 51l-355 1599h-268l-377 -1599h258l74 338h340l68 -325q-75 -88 -78 -148z" />
<glyph unicode="&#x105;" horiz-adv-x="1150" d="M604 606h-200l103 482zM662 -135q-4 -74 51 -122q26 -26 75 -46q51 -23 140 -8v151q-46 -22 -73 13q-27 34 43 96q32 28 102 51l-355 1599h-268l-377 -1599h258l74 338h340l68 -325q-75 -88 -78 -148z" />
<glyph unicode="&#x106;" d="M205 1598l-205 -206v-1187l205 -205h457l205 205v272h-267v-209h-332v1062h332v-209h267v271l-205 206h-457zM281 1693l191 389h267l-191 -389h-267z" />
<glyph unicode="&#x107;" d="M205 1598l-205 -206v-1187l205 -205h457l205 205v272h-267v-209h-332v1062h332v-209h267v271l-205 206h-457zM281 1693l191 389h267l-191 -389h-267z" />
<glyph unicode="&#x118;" horiz-adv-x="861" d="M373 -135q-4 -74 51 -122q26 -26 75 -46q51 -23 139 -8l1 151q-46 -22 -73 13q-27 34 24 79t121 68v268h-443v398h354v267h-354v398h443v268h-711v-1599h440q-65 -80 -67 -135z" />
<glyph unicode="&#x119;" horiz-adv-x="861" d="M373 -135q-4 -74 51 -122q26 -26 75 -46q51 -23 139 -8l1 151q-46 -22 -73 13q-27 34 24 79t121 68v268h-443v398h354v267h-354v398h443v268h-711v-1599h440q-65 -80 -67 -135z" />
<glyph unicode="&#x131;" horiz-adv-x="150" />
<glyph unicode="&#x141;" horiz-adv-x="860" d="M-155 559l97 -91l58 62v-530h710v268h-442v547l178 190l-97 91l-81 -86v588h-268v-874z" />
<glyph unicode="&#x142;" horiz-adv-x="860" d="M-155 559l97 -91l58 62v-530h710v268h-442v547l178 190l-97 91l-81 -86v588h-268v-874z" />
<glyph unicode="&#x143;" horiz-adv-x="1073" d="M655 752l-354 847h-301v-1599h268v847l354 -847h301v1599h-268v-847zM308 1691l191 389h267l-191 -389h-267z" />
<glyph unicode="&#x144;" horiz-adv-x="1073" d="M655 752l-354 847h-301v-1599h268v847l354 -847h301v1599h-268v-847zM308 1691l191 389h267l-191 -389h-267z" />
<glyph unicode="&#x147;" horiz-adv-x="1073" d="M655 752l-354 847h-301v-1599h268v847l354 -847h301v1599h-268v-847zM662 2138l135 -178l-267 -203l-68 -51l-68 51l-267 203l135 178l200 -151z" />
<glyph unicode="&#x148;" horiz-adv-x="1073" d="M655 752l-354 847h-301v-1599h268v847l354 -847h301v1599h-268v-847zM662 2138l135 -178l-267 -203l-68 -51l-68 51l-267 203l135 178l200 -151z" />
<glyph unicode="&#x152;" horiz-adv-x="1460" d="M600 268h-332v1063h332v-1063zM833 0h477v268h-443v398h355v267h-355v398h443v268h-1105l-205 -206v-1188l205 -205h461l83 80z" />
<glyph unicode="&#x153;" horiz-adv-x="1460" d="M600 268h-332v1063h332v-1063zM833 0h477v268h-443v398h355v267h-355v398h443v268h-1105l-205 -206v-1188l205 -205h461l83 80z" />
<glyph unicode="&#x158;" d="M600 899h-332v431h332v-431zM0 1598v-1598h268v632h332v-632h267v726l-73 71l73 73v522l-205 206h-662zM634 2138l135 -178l-267 -203l-68 -51l-68 51l-267 203l135 178l200 -151z" />
<glyph unicode="&#x159;" d="M600 899h-332v431h332v-431zM0 1598v-1598h268v632h332v-632h267v726l-73 71l73 73v522l-205 206h-662zM634 2138l135 -178l-267 -203l-68 -51l-68 51l-267 203l135 178l200 -151z" />
<glyph unicode="&#x160;" d="M205 1599l-205 -206v-523l200 -204h400v-398h-332v209h-268v-272l205 -205h457l205 205v521l-73 71l1 1l-138 135h-389v398h332v-309h267v371l-205 206h-457zM634 2138l135 -178l-267 -203l-68 -51l-68 51l-267 203l135 178l200 -151z" />
<glyph unicode="&#x161;" d="M205 1599l-205 -206v-523l200 -204h400v-398h-332v209h-268v-272l205 -205h457l205 205v521l-73 71l1 1l-138 135h-389v398h332v-309h267v371l-205 206h-457zM634 2138l135 -178l-267 -203l-68 -51l-68 51l-267 203l135 178l200 -151z" />
<glyph unicode="&#x164;" horiz-adv-x="935" d="M0 1598v-268h258v-1330h268v1330h259v268h-785zM593 2138l135 -178l-267 -203l-68 -51l-68 51l-267 203l135 178l200 -151z" />
<glyph unicode="&#x165;" horiz-adv-x="935" d="M0 1598v-268h258v-1330h268v1330h259v268h-785zM593 2138l135 -178l-267 -203l-68 -51l-68 51l-267 203l135 178l200 -151z" />
<glyph unicode="&#x178;" horiz-adv-x="1140" d="M488 1025l-223 574h-265l351 -950v-649h267v649l372 950h-265zM149 1690h268v268h-268v-268zM572 1690h268v268h-268v-268z" />
<glyph unicode="&#x179;" horiz-adv-x="952" d="M0 1330h467l-467 -1048v-282h802v268h-457l457 1047v283h-802v-268zM248 1691l191 389h267l-191 -389h-267z" />
<glyph unicode="&#x17a;" horiz-adv-x="952" d="M0 1330h467l-467 -1048v-282h802v268h-457l457 1047v283h-802v-268zM248 1691l191 389h267l-191 -389h-267z" />
<glyph unicode="&#x17b;" horiz-adv-x="952" d="M0 1330h467l-467 -1048v-282h802v268h-457l457 1047v283h-802v-268zM510 1690h268v268h-268v-268z" />
<glyph unicode="&#x17c;" horiz-adv-x="952" d="M0 1330h467l-467 -1048v-282h802v268h-457l457 1047v283h-802v-268zM267 1690h268v268h-268v-268z" />
<glyph unicode="&#x17d;" horiz-adv-x="952" d="M0 1330h467l-467 -1048v-282h802v268h-457l457 1047v283h-802v-268zM601 2138l135 -178l-267 -203l-68 -51l-68 51l-267 203l135 178l200 -151z" />
<glyph unicode="&#x17e;" horiz-adv-x="952" d="M0 1330h467l-467 -1048v-282h802v268h-457l457 1047v283h-802v-268zM601 2138l135 -178l-267 -203l-68 -51l-68 51l-267 203l135 178l200 -151z" />
<glyph unicode="&#x2c6;" horiz-adv-x="820" d="M335 1657l-200 -151l-135 178l267 203l68 51l68 -51l267 -203l-135 -178z" />
<glyph unicode="&#x2c7;" horiz-adv-x="820" d="M535 1938l135 -178l-267 -203l-68 -51l-68 51l-267 203l135 178l200 -151z" />
<glyph unicode="&#x2d8;" horiz-adv-x="794" d="M400 1908v2q-2 -52 -32 -70q-11 -6 -26 -9q-5 0 -11 -1h-18q-6 1 -12 1q-14 3 -25 9q-30 18 -32 70l-244 -2q0 -118 72 -210q90 -112 250 -112t249 112q73 92 73 210h-244z" />
<glyph unicode="&#x2d9;" horiz-adv-x="418" d="M0 1616h268v268h-268v-268z" />
<glyph unicode="&#x2da;" horiz-adv-x="544" d="M336.5 1913q57.5 -58 57.5 -140q0 -81 -57.5 -139t-139.5 -58t-139.5 58t-57.5 139q0 82 57.5 140t139.5 58t139.5 -58zM197 1823q-20 0 -34.5 -14.5t-14.5 -35.5q0 -20 14.5 -34.5t34.5 -14.5t34.5 14.5t14.5 34.5q0 21 -14.5 35.5t-34.5 14.5z" />
<glyph unicode="&#x2db;" horiz-adv-x="482" d="M104 38q-97 -105 -100 -173q-4 -74 51 -122q26 -26 75 -46q51 -23 139 -8l1 151q-46 -22 -73 13q-27 34 43 96q46 41 92 70l-153 91q-43 -37 -75 -72z" />
<glyph unicode="&#x2dc;" horiz-adv-x="910" d="M563 1738q5 -77 -206 30q-39 14 -71 21q-81 19 -144 -2q-67 -23 -105 -84q-33 -54 -37 -127l190 -39q-3 25 14.5 43.5t191.5 -50t256.5 -15t107.5 184.5z" />
<glyph unicode="&#x2dd;" horiz-adv-x="936" d="M267 1616l150 556h-267l-150 -556h267zM636 1616l150 556h-267l-150 -556h267z" />
<glyph unicode="&#x2000;" horiz-adv-x="1086" />
<glyph unicode="&#x2001;" horiz-adv-x="2172" />
<glyph unicode="&#x2002;" horiz-adv-x="1086" />
<glyph unicode="&#x2003;" horiz-adv-x="2172" />
<glyph unicode="&#x2004;" horiz-adv-x="724" />
<glyph unicode="&#x2005;" horiz-adv-x="543" />
<glyph unicode="&#x2006;" horiz-adv-x="362" />
<glyph unicode="&#x2007;" horiz-adv-x="362" />
<glyph unicode="&#x2008;" horiz-adv-x="271" />
<glyph unicode="&#x2009;" horiz-adv-x="434" />
<glyph unicode="&#x200a;" horiz-adv-x="120" />
<glyph unicode="&#x2010;" horiz-adv-x="706" d="M0 666h556v267h-556v-267z" />
<glyph unicode="&#x2011;" horiz-adv-x="706" d="M0 666h556v267h-556v-267z" />
<glyph unicode="&#x2012;" horiz-adv-x="706" d="M0 666h556v267h-556v-267z" />
<glyph unicode="&#x2013;" horiz-adv-x="150" />
<glyph unicode="&#x2014;" horiz-adv-x="150" />
<glyph unicode="&#x2018;" horiz-adv-x="418" d="M268 1461h-126l61 140h-142l-60 -140h-1v-268h268v268z" />
<glyph unicode="&#x2019;" horiz-adv-x="418" d="M0 1333h125l-60 -140h141l61 140h1v268h-268v-268z" />
<glyph unicode="&#x201a;" horiz-adv-x="418" d="M0 -1h125l-60 -140h141l61 140h1v268h-268v-268z" />
<glyph unicode="&#x201c;" horiz-adv-x="757" d="M607 1461h-126l61 140h-142l-60 -140h-1v-268h268v268zM268 1461h-126l61 140h-142l-60 -140h-1v-268h268v268z" />
<glyph unicode="&#x201d;" horiz-adv-x="757" d="M0 1333h125l-60 -140h141l61 140h1v268h-268v-268zM339 1333h125l-60 -140h141l61 140h1v268h-268v-268z" />
<glyph unicode="&#x201e;" horiz-adv-x="757" d="M0 -1h125l-60 -140h141l61 140h1v268h-268v-268zM339 267h268v-269h-1l-61 -139h-141l60 139h-125v269z" />
<glyph unicode="&#x2020;" horiz-adv-x="150" />
<glyph unicode="&#x2021;" horiz-adv-x="150" />
<glyph unicode="&#x2022;" horiz-adv-x="150" />
<glyph unicode="&#x2026;" horiz-adv-x="150" />
<glyph unicode="&#x202f;" horiz-adv-x="434" />
<glyph unicode="&#x2039;" horiz-adv-x="150" />
<glyph unicode="&#x203a;" horiz-adv-x="150" />
<glyph unicode="&#x2044;" horiz-adv-x="150" />
<glyph unicode="&#x205f;" horiz-adv-x="543" />
<glyph unicode="&#x20a3;" horiz-adv-x="150" />
<glyph unicode="&#x20a4;" horiz-adv-x="150" />
<glyph unicode="&#x20a7;" horiz-adv-x="150" />
<glyph unicode="&#x20ac;" horiz-adv-x="987" d="M-50 1011v-147h109v-133h-109v-147h109v-379l205 -205h573v268h-510v316h330v147h-330v133h330v147h-330v320h510v268h-573l-205 -206v-382h-109z" />
<glyph unicode="&#x2122;" horiz-adv-x="150" />
<glyph unicode="&#x2202;" horiz-adv-x="150" />
<glyph unicode="&#x2206;" horiz-adv-x="150" />
<glyph unicode="&#x220f;" horiz-adv-x="150" />
<glyph unicode="&#x2211;" horiz-adv-x="150" />
<glyph unicode="&#x221a;" horiz-adv-x="150" />
<glyph unicode="&#x221e;" horiz-adv-x="150" />
<glyph unicode="&#x222b;" horiz-adv-x="150" />
<glyph unicode="&#x2248;" horiz-adv-x="150" />
<glyph unicode="&#x2264;" horiz-adv-x="150" />
<glyph unicode="&#x2265;" horiz-adv-x="150" />
<glyph unicode="&#x25fc;" horiz-adv-x="1600" d="M0 1600h1600v-1600h-1600v1600z" />
</font>
</defs>
</svg>
